<svg width="35" height="35" viewBox="0 0 256 256" fill="none" xmlns="http://www.w3.org/2000/svg">
<path d="M196 0H60C26.8629 0 0 26.8629 0 60V196C0 229.137 26.8629 256 60 256H196C229.137 256 256 229.137 256 196V60C256 26.8629 229.137 0 196 0Z" />
<path d="M157.557 42.0923L94.6103 154.651C93.3102 156.975 89.9714 156.989 88.6525 154.676L24.4576 42.1024C23.0207 39.5827 25.1754 36.5303 28.0319 37.0408L91.0454 48.3043C91.4475 48.376 91.8592 48.375 92.261 48.3016L153.957 37.0563C156.803 36.5377 158.968 39.5666 157.557 42.0923Z" fill="url(#paint0_linear_413_235)"/>
<path d="M115.016 31.0285L74.678 38.9319C74.3557 38.9949 74.0634 39.1633 73.8473 39.4107C73.6311 39.6581 73.5034 39.9703 73.4843 40.2982L71.0026 82.2062C70.989 82.4359 71.0292 82.6657 71.1199 82.8772C71.2106 83.0888 71.3494 83.2762 71.5252 83.4248C71.701 83.5734 71.909 83.6789 72.1327 83.7331C72.3563 83.7873 72.5896 83.7886 72.8139 83.7369L84.0448 81.1454C85.0956 80.9032 86.0449 81.8286 85.8293 82.8853L82.4925 99.2242C82.2677 100.324 83.3006 101.264 84.3741 100.938L91.3109 98.8303C92.3861 98.5038 93.4196 99.4467 93.1919 100.547L87.8893 126.212C87.5576 127.818 89.693 128.693 90.5836 127.316L91.1784 126.397L124.048 60.8C124.599 59.702 123.649 58.4496 122.443 58.6819L110.883 60.9132C109.797 61.1224 108.873 60.111 109.179 59.0485L116.724 32.8921C117.031 31.8278 116.103 30.8159 115.016 31.0285Z" fill="url(#paint1_linear_413_235)"/>
<path d="M172.342 115C142.318 115 118 139.318 118 169.342C117.993 180.749 121.579 191.869 128.248 201.123C134.917 210.378 144.33 217.298 155.154 220.902C157.871 221.374 158.892 219.744 158.892 218.315C158.892 217.027 158.822 212.75 158.822 208.196C145.171 210.712 141.639 204.871 140.552 201.811C139.938 200.246 137.291 195.426 134.982 194.133C133.08 193.116 130.363 190.6 134.911 190.535C139.193 190.465 142.247 194.475 143.269 196.105C148.16 204.322 155.969 202.012 159.093 200.588C159.572 197.056 160.995 194.682 162.56 193.323C150.469 191.964 137.835 187.275 137.835 166.489C137.835 160.577 139.938 155.691 143.405 151.882C142.861 150.523 140.959 144.953 143.948 137.481C143.948 137.481 148.497 136.057 158.892 143.057C163.316 141.829 167.887 141.211 172.478 141.22C177.097 141.22 181.716 141.829 186.063 143.051C196.459 135.987 201.007 137.487 201.007 137.487C203.996 144.959 202.094 150.529 201.551 151.887C205.012 155.691 207.121 160.511 207.121 166.489C207.121 187.345 194.421 191.964 182.325 193.323C184.297 195.018 185.998 198.279 185.998 203.376C185.998 210.642 185.927 216.484 185.927 218.32C185.927 219.744 186.949 221.439 189.666 220.896C200.452 217.253 209.824 210.32 216.464 201.072C223.103 191.824 226.676 180.726 226.678 169.342C226.678 139.318 202.36 115 172.336 115H172.342Z" fill="black"/>
<defs>
<linearGradient id="paint0_linear_413_235" x1="22.8906" y1="33.0178" x2="101.232" y2="139.412" gradientUnits="userSpaceOnUse">
<stop stop-color="#41D1FF"/>
<stop offset="1" stop-color="#BD34FE"/>
</linearGradient>
<linearGradient id="paint1_linear_413_235" x1="85.8909" y1="33.1744" x2="98.1628" y2="117.359" gradientUnits="userSpaceOnUse">
<stop stop-color="#FFEA83"/>
<stop offset="0.083" stop-color="#FFDD35"/>
<stop offset="1" stop-color="#FFA800"/>
</linearGradient>
</defs>
</svg>
